PathFileType	4	(X/Y/Z)	s06c0303.trc
DataRate	CameraRate	NumFrames	NumMarkers	Units	OrigDataRate	OrigDataStartFrame	OrigNumFrames
200	200	6	48	mm	200	1250	2000
Frame#	Time	racr			lacr			c7			jug			rlel			rdr			llel			ldr			s2			lic			ric			lasi			rasi			rpsi			lpsi			rgt			lgt			rth1			rth2			rth3			rth4			rlfc			rmfc			rsh1			rsh2			rsh3			rsh4			rlmal			rcal			rtoe			rmt5			lth1			lth2			lth4			lth3			llfc			lmfc			llmal			lcal			lmt5			lsh1			lsh2			lsh3			lsh4			ltoe			SBIKE			LBIKE			RBIKE			
		X1	Y1	Z1	X2	Y2	Z2	X3	Y3	Z3	X4	Y4	Z4	X5	Y5	Z5	X6	Y6	Z6	X7	Y7	Z7	X8	Y8	Z8	X9	Y9	Z9	X10	Y10	Z10	X11	Y11	Z11	X12	Y12	Z12	X13	Y13	Z13	X14	Y14	Z14	X15	Y15	Z15	X16	Y16	Z16	X17	Y17	Z17	X18	Y18	Z18	X19	Y19	Z19	X20	Y20	Z20	X21	Y21	Z21	X22	Y22	Z22	X23	Y23	Z23	X24	Y24	Z24	X25	Y25	Z25	X26	Y26	Z26	X27	Y27	Z27	X28	Y28	Z28	X29	Y29	Z29	X30	Y30	Z30	X31	Y31	Z31	X32	Y32	Z32	X33	Y33	Z33	X34	Y34	Z34	X35	Y35	Z35	X36	Y36	Z36	X37	Y37	Z37	X38	Y38	Z38	X39	Y39	Z39	X40	Y40	Z40	X41	Y41	Z41	X42	Y42	Z42	X43	Y43	Z43	X44	Y44	Z44	X45	Y45	Z45	X46	Y46	Z46	X47	Y47	Z47	X48	Y48	Z48	
1250	6.2500	707.118791	1288.387904	-100.683878	732.848068	1217.260557	-400.765802	741.294285	1312.420336	-259.908337	675.358124	1167.865779	-223.930359	581.053170	1097.739726	51.362999	711.121770	923.804005	-36.996938	529.297505	1052.583430	-498.814179	699.208750	930.720588	-414.900102	159.768497	1231.539193	-235.425690	305.158141	1158.618189	-406.577782	299.334427	1180.866333	-72.903239	323.645184	1110.709160	-364.523565	322.647673	1130.779691	-108.434602	199.196062	1263.936183	-206.558745	197.335018	1261.176234	-267.269275	268.211661	1106.118830	-35.515726	261.508560	1094.072923	-428.683108	343.337416	997.333572	-34.425382	404.857962	931.885885	-42.055459	426.252180	847.818709	-39.376565	430.259783	947.337032	-66.032221	432.494705	742.488529	-52.971838	411.841916	719.019680	-160.793229	335.430530	666.139125	-26.255649	276.325484	605.832164	-46.909562	192.860542	576.767618	-48.551664	289.393649	589.998008	-81.227709	118.349073	543.924774	-53.026064	66.908401	582.186958	-101.666511	154.863594	318.657772	-96.105947	99.798135	402.814990	-28.980333	284.123182	968.445985	-446.619488	332.419903	896.504114	-439.372303	366.731945	908.585210	-431.389261	337.674898	807.629703	-429.067331	353.259236	691.895244	-408.784372	365.376490	677.210243	-294.665294	271.538612	328.113145	-376.308861	200.363313	320.144675	-327.164097	376.224983	231.325506	-402.168134	329.267674	584.028166	-423.863659	331.867467	499.808895	-402.417385	290.913267	421.909898	-395.951984	361.650409	498.529986	-376.824379	461.105299	213.476468	-343.404097	-164.046919	858.097191	-229.128509	-53.967010	79.775054	-411.073708	-54.972077	79.916593	-13.812018	
1251	6.2550	705.282657	1284.675589	-98.409594	733.890645	1214.745215	-398.205587	741.624498	1309.599199	-256.906070	674.148234	1165.299043	-222.838264	579.599812	1094.907396	52.812637	709.999685	922.951720	-37.343871	531.378628	1052.313334	-501.618754	698.837073	930.223480	-415.150750	159.761350	1228.513019	-236.468736	306.234935	1155.603599	-406.508519	298.081592	1179.130926	-73.238059	324.193478	1107.019608	-364.090858	321.134366	1128.565277	-108.124235	199.306166	1261.301381	-207.701426	197.939452	1258.322316	-268.247486	267.925034	1105.650930	-34.579766	261.672791	1089.587446	-428.000180	346.233683	999.528280	-33.342761	409.281103	935.231132	-39.609812	432.892091	852.214659	-36.888424	436.001864	953.120251	-60.614438	441.964697	746.678498	-51.159387	421.821733	724.423575	-159.898429	344.206237	671.465192	-25.735066	282.763360	611.913362	-47.843844	200.301982	584.346522	-48.407612	297.020433	596.352932	-81.037444	124.925985	552.820492	-53.187704	73.354622	591.163889	-102.102779	161.170511	327.606601	-96.206401	106.153392	411.869703	-29.230797	281.911593	963.037119	-446.574337	328.519498	890.078915	-438.723516	362.998805	901.445462	-430.355553	331.895890	801.184502	-428.549602	346.052005	685.910481	-407.989337	356.318674	670.584068	-293.977241	267.796188	320.318043	-376.637578	196.721297	313.822746	-327.578352	371.098391	221.468515	-402.155018	323.008710	577.519787	-423.568051	326.737006	492.997050	-402.523513	286.703379	414.604153	-396.226093	356.011376	492.150366	-376.199147	455.560516	202.143336	-343.132165	-163.830408	857.941747	-228.659001	-53.927497	79.785393	-411.096445	-54.944035	79.909205	-13.798813	
1252	6.2600	704.345078	1280.904381	-95.812037	734.929437	1212.145042	-395.644450	741.924671	1306.740125	-253.850447	674.034503	1162.318628	-221.174941	578.324106	1091.704893	54.307097	709.151453	922.052023	-37.752896	533.667940	1052.039565	-504.462421	697.778885	930.008320	-416.815935	160.112446	1225.234319	-237.583669	307.500626	1152.422766	-406.475316	298.994307	1177.916902	-71.685163	324.687940	1103.376157	-364.763443	322.707453	1127.217289	-105.792235	199.720580	1259.054194	-209.624406	198.679496	1255.301799	-269.184918	268.074351	1105.304634	-33.768095	262.186646	1085.417128	-427.168081	349.303403	1001.569090	-32.807276	413.500581	939.331978	-37.203811	438.661182	856.157917	-35.525877	440.574700	957.719558	-57.558017	451.207131	751.575245	-49.449068	431.851375	729.950577	-158.757019	353.352826	676.786596	-25.356158	291.066372	618.133080	-47.699171	208.347171	591.633931	-48.395560	305.070060	602.664211	-81.056410	131.943897	561.310919	-53.414542	80.342613	599.745879	-102.575315	168.148106	336.271520	-96.411919	113.069147	420.557752	-29.521944	279.347222	958.111629	-446.601048	324.366982	884.316952	-438.173050	358.759010	894.952300	-429.425234	325.633719	795.241809	-428.240026	338.284753	679.720746	-407.221370	347.245547	664.375374	-293.124579	263.232063	313.156333	-377.026428	192.532478	307.777356	-327.823043	365.374025	212.013346	-402.117050	316.286376	570.772433	-423.382248	321.120512	486.150648	-402.238447	282.135646	407.390391	-396.272154	349.674026	485.708765	-374.492066	449.389164	191.245986	-343.097033	-163.586140	858.092413	-229.225255	-53.849026	79.752786	-411.109790	-54.832847	79.919289	-13.814014	
1253	6.2650	703.434281	1276.819263	-93.272100	736.077363	1209.327227	-393.196262	742.284100	1303.851036	-250.742641	674.152930	1159.184446	-219.722479	577.247592	1088.163716	55.745649	709.002759	921.125213	-38.207508	536.416495	1052.116055	-507.770255	697.838261	930.345234	-417.511992	160.802016	1221.977498	-238.771674	308.856083	1148.783382	-406.245441	298.610008	1176.384033	-71.612568	325.341758	1099.237176	-363.783164	322.378829	1125.457353	-105.202532	199.664289	1255.918879	-209.896435	199.584263	1252.261362	-270.086600	268.591271	1105.001669	-33.209832	262.710305	1081.368426	-426.383070	351.994830	1003.916145	-31.281522	417.902281	943.097027	-34.998361	445.037896	860.519366	-32.817909	444.379903	961.671132	-54.207182	460.238068	756.940195	-48.162468	442.043642	735.938048	-157.904528	362.643574	682.060399	-25.046171	299.639612	624.291275	-47.649357	216.657459	598.763913	-48.416900	313.481337	609.063010	-81.132849	139.502575	569.559885	-53.559718	87.770297	607.887336	-103.058497	175.745760	344.439884	-96.661959	120.649998	428.830166	-29.903226	276.533193	953.619509	-446.410570	319.827398	878.925859	-437.696397	354.443010	888.700100	-428.805457	319.132608	789.807060	-428.056081	330.078070	673.287425	-406.262890	338.201696	658.573237	-292.170466	257.900321	306.213356	-377.246163	188.011676	301.001404	-326.773946	359.065174	202.960182	-402.069793	309.129586	564.288532	-423.352127	315.070939	479.660152	-402.154872	277.123483	400.440522	-396.184504	343.417716	479.650660	-374.093331	442.736347	180.714622	-342.956913	-163.364702	857.884361	-228.603398	-53.746603	79.677282	-411.101486	-54.752146	80.103237	-13.692663	
1254	6.2700	702.655652	1272.474703	-90.584696	737.400745	1206.484176	-390.782691	742.825070	1300.969825	-247.640762	674.565930	1155.984178	-218.477182	576.563346	1084.270629	57.059606	709.767372	920.192525	-38.626140	539.326024	1051.794434	-510.209010	698.231435	930.331211	-418.067209	161.590279	1218.698426	-239.912568	310.292091	1145.182531	-405.994551	298.518786	1174.842749	-71.602371	325.982966	1095.250849	-363.074332	322.179246	1123.555915	-104.577062	199.787096	1253.288118	-211.075763	200.417966	1249.079563	-270.849712	269.227410	1104.936862	-32.626476	263.460765	1077.442265	-425.599792	354.563571	1006.207432	-29.506956	422.109332	946.969264	-32.342514	451.296647	864.920037	-30.428734	448.219485	966.574670	-50.837493	469.658259	762.116651	-46.757514	452.057103	741.893738	-156.910986	371.955001	687.536109	-24.634731	308.413581	630.371307	-47.578212	225.124623	605.719795	-48.472715	323.048614	615.196139	-81.125403	147.423660	577.303112	-53.679734	95.455721	615.581665	-103.483161	183.865865	352.434420	-96.807670	128.673948	436.611004	-30.192693	273.660691	949.443461	-445.881454	315.113438	873.713290	-437.258108	349.962176	882.652933	-428.386525	312.301118	784.733926	-427.874047	321.350415	667.039873	-405.673823	328.900122	652.623921	-291.307371	252.004608	299.649332	-377.318737	182.928820	296.855079	-328.117818	352.373424	194.319621	-401.924022	301.370197	558.008077	-423.098871	308.450326	473.465955	-402.153123	271.441861	393.691933	-395.974949	336.704273	473.792823	-373.994043	435.586996	170.714872	-342.859816	-163.556300	858.018450	-228.869763	-53.647423	79.685739	-411.147783	-54.608158	79.926889	-13.847946	
1255	6.2750	702.163698	1268.014059	-87.858849	738.912534	1203.702037	-388.508453	743.610543	1298.075789	-244.577604	675.244391	1152.775311	-217.326105	575.793952	1080.118191	57.910324	711.200881	919.393418	-38.800603	542.590324	1051.230176	-512.112307	699.150702	930.128317	-418.214137	162.609326	1215.537340	-240.540515	311.805798	1141.480116	-405.591905	298.861220	1173.190786	-71.550234	326.649825	1091.285357	-362.268373	322.109122	1121.382453	-103.855747	200.038332	1250.397611	-211.936699	201.288911	1245.836189	-271.516828	269.725697	1104.793157	-31.933454	264.019845	1073.489642	-424.839190	357.183253	1008.315485	-27.423181	427.046608	949.777735	-31.127730	457.245463	869.339710	-28.315915	452.190570	971.186358	-47.838959	478.591752	767.815134	-45.473447	462.209724	748.079571	-156.299201	381.208395	693.147162	-24.214022	317.254974	636.540417	-47.535824	233.810771	612.341547	-48.474116	331.439786	621.194333	-81.401203	155.496371	584.623643	-53.859568	103.217302	622.795670	-103.842227	192.524843	359.991686	-97.065461	136.952656	444.139140	-30.528223	270.767163	945.411313	-444.981187	310.236940	868.602283	-436.769182	345.421562	876.625352	-428.101013	305.146177	779.745085	-427.666343	312.303595	660.984607	-404.936534	319.469704	646.604186	-290.562910	245.831713	293.475160	-377.161444	177.471130	292.211457	-328.017276	345.162871	186.176211	-401.367959	292.871957	552.215033	-422.714416	301.055842	467.595097	-402.173006	264.911171	387.348323	-395.849796	329.391500	468.104471	-374.101356	427.835637	161.274122	-342.696921	-163.340705	857.965968	-228.679055	-53.547926	79.668854	-411.157424	-54.490651	80.181654	-13.626861	
